# xmcd
#
# Track frame offsets:
#	150
#	17705
#	35035
#	53760
#	68102
#	85422
#	104772
#	122072
#	138957
#	157122
#	172357
#	187075
#	203375
#	218937
#
# Disc length: 3114
#
# Revision: 2
# Processed by: cddbd v1.5.1PL0 Copyright (c) Steve Scherf et al.
# Submitted via: dBpowerAMP V4.0
# Normalized: r0:TDELIM( - ),TSWAP
#
DISCID=d40c280e
DTITLE=Various Artist - Country Ballads 2
DYEAR=1900
DGENRE=Country
TTITLE0=Mark Chesnutt - I don't want to miss a thing
TTITLE1=Allison Moorer - A soft place to fall
TTITLE2=Billy Ray Cyrus - Time for letting go
TTITLE3=George Strait - Today my world slipped away
TTITLE4=Danni Leigh - 29 nights
TTITLE5=David Lee Murphy - We can't all be Angels
TTITLE6=Reba Mcentire - Forever love
TTITLE7=The Mavericks - I've got this feeling
TTITLE8=Olivia Newton - John - I honestly love you
TTITLE9=Tracy Byrd - I want to feel that way again
TTITLE10=Toby Keith - Getcha some
TTITLE11=Terri Clark - Now that I found you
TTITLE12=Sammy Kershaw - Yard Sale
TTITLE13=Mark Wills - I do (Cherish you)
EXTD=
EXTT0=
EXTT1=
EXTT2=
EXTT3=
EXTT4=
EXTT5=
EXTT6=
EXTT7=
EXTT8=
EXTT9=
EXTT10=
EXTT11=
EXTT12=
EXTT13=
PLAYORDER=
